<svg width="17" height="20" fill="none" xmlns="http://www.w3.org/2000/svg"><path d="M.412 8.059c0-.566 0-.95.04-1.236.036-.275.1-.398.184-.481.083-.083.206-.148.48-.185.287-.038.67-.04 1.237-.04h11.765c.566 0 .95.002 1.236.04.274.037.398.102.48.185.084.083.149.206.185.48.039.287.04.67.04 1.237v4.706c0 1.675-.001 2.89-.126 3.818-.123.915-.36 1.488-.787 1.916-.428.427-1 .664-1.916.787-.928.125-2.143.126-3.818.126H7.059c-1.676 0-2.89-.001-3.818-.126-.915-.123-1.488-.36-1.916-.787-.428-.428-.665-1-.788-1.916-.124-.928-.125-2.143-.125-3.818V8.059z" stroke="#AFAFAF" stroke-width=".824"/><path d="M11.765 10.412V4.529A3.53 3.53 0 008.235 1v0a3.53 3.53 0 00-3.53 3.53v5.882" stroke="#AFAFAF" stroke-width=".824"/></svg>