<svg width="89" height="69" fill="none" xmlns="http://www.w3.org/2000/svg"><g clip-path="url(#clip0)" filter="url(#filter0_d)"><path d="M65.868 28.547c-.154-.033-.3-.063-.428-.097-1.465-.38-2.133-.59-2.627-1.543l-1.872-3.79c-.601-1.16-2.154-2.105-3.462-2.105h-3.332v-4.376c0-.786-.64-1.425-1.425-1.425l-23.209.023c-.764 0-1.34.608-1.34 1.414v1.293h-5.946A2.23 2.23 0 0020 20.168a2.23 2.23 0 002.227 2.227h5.945v2.134h-3.893a2.23 2.23 0 00-2.226 2.227 2.23 2.23 0 002.226 2.226h3.893v2.134h-1.84a2.23 2.23 0 00-2.227 2.227 2.23 2.23 0 002.227 2.227h1.84v2.232c0 .786.64 1.425 1.425 1.425h2.414a5.344 5.344 0 005.28 4.562 5.344 5.344 0 005.28-4.562h9.77c.051 0 .103-.004.155-.007a5.344 5.344 0 005.28 4.569 5.344 5.344 0 005.28-4.562h3.469A2.478 2.478 0 0069 36.75v-4.2c0-3.347-1.885-3.743-3.132-4.004zm-8.091 7.966c1.07 0 1.94.87 1.94 1.94 0 1.07-.87 1.94-1.94 1.94-1.07 0-1.94-.87-1.94-1.94 0-1.07.87-1.94 1.94-1.94zm-3.63-8.268v-5.167h2.546c.98 0 2.186.735 2.635 1.6l1.665 3.371c.035.069.072.134.11.196h-6.956zM39.231 38.453c0 1.07-.87 1.94-1.94 1.94-1.07 0-1.94-.87-1.94-1.94 0-1.07.87-1.94 1.94-1.94 1.07 0 1.94.87 1.94 1.94z" fill="url(#paint0_linear)"/></g><defs><linearGradient id="paint0_linear" x1="33.611" y1="4.494" x2="75.465" y2="14.712" gradientUnits="userSpaceOnUse"><stop stop-color="#8DB246"/><stop offset="1" stop-color="#AED066"/></linearGradient><clipPath id="clip0"><path fill="#fff" transform="translate(20 15)" d="M0 0h49v29H0z"/></clipPath><filter id="filter0_d" x="0" y="0" width="89" height="69" filterUnits="userSpaceOnUse" color-interpolation-filters="sRGB"><feFlood flood-opacity="0" result="BackgroundImageFix"/><feColorMatrix in="SourceAlpha" values="0 0 0 0 0 0 0 0 0 0 0 0 0 0 0 0 0 0 127 0"/><feOffset dy="5"/><feGaussianBlur stdDeviation="10"/><feColorMatrix values="0 0 0 0 0.682353 0 0 0 0 0.815686 0 0 0 0 0.4 0 0 0 0.4 0"/><feBlend in2="BackgroundImageFix" result="effect1_dropShadow"/><feBlend in="SourceGraphic" in2="effect1_dropShadow" result="shape"/></filter></defs></svg>